<svg data-v-0dd9719b="" version="1.0" xmlns="http://www.w3.org/2000/svg" xmlns:xlink="http://www.w3.org/1999/xlink" width="100%" height="100%" viewBox="0 0 340.000000 250.000000" preserveAspectRatio="xMidYMid meet" color-interpolation-filters="sRGB" style="margin: auto;"> <rect data-v-0dd9719b="" x="0" y="0" width="100%" height="100%" fill="#fff" fill-opacity="1" class="background"></rect> <rect data-v-0dd9719b="" x="0" y="0" width="100%" height="100%" fill="url(#watermark)" fill-opacity="1" class="watermarklayer"></rect> <g data-v-0dd9719b="" fill="#333" class="icon-text-wrapper icon-svg-group iconsvg" transform="translate(47.48499298095703,99.01922607421875)"><g class="iconsvg-imagesvg" transform="translate(0,0)"><g><rect fill="#333" fill-opacity="0" stroke-width="2" x="0" y="0" width="60" height="51.96154845414393" class="image-rect"></rect> <svg x="0" y="0" width="60" height="51.96154845414393" filtersec="colorsb6154166405" class="image-svg-svg primary" style="overflow: visible;"><svg xmlns="http://www.w3.org/2000/svg" viewBox="0 0 115.4699935913086 100"><g fill-rule="evenodd"><path d="M88.47 31.82a5.89 5.89 0 0 0 .45-2.27 6 6 0 1 0-6.37 5.94L98.83 63.7l-21 36.3h8.77l20.62-35.71zM28 43.46a6 6 0 0 0 5.31-8.66L49.05 7.56H91L86.6 0H45.37L27.12 31.61A6 6 0 0 0 28 43.46zM62.76 76.19a6 6 0 0 0-4.88 2.55H25.32l-21-36.3L0 50l20.62 35.71H58a6 6 0 1 0 4.77-9.52z" fill="#00a2e9"></path><path d="M94.85 14.29h-37a6 6 0 1 0 0 7h32.3l21 36.3 4.32-7.59zM87.18 56.23a6 6 0 0 0-5.08 9.06L66.42 92.44H24.5l4.37 7.56H70.1l18.49-32a6 6 0 0 0-1.41-11.75zM25.66 69.75a6 6 0 1 0 6.89-5.88L16.64 36.3 37.6 0h-8.73L8.25 35.71 26.32 67a6 6 0 0 0-.66 2.75z" fill="#096594"></path></g></svg></svg> <!----></g></g> <g transform="translate(67,11.415773391723633)"><g data-gra="path-name" fill-rule="" class="tp-name iconsvg-namesvg"><g transform="scale(1)"><g><path d="M0.04-19.89L8.75-19.89 8.75 1.9 15.95 1.9 15.95-19.89 24.67-19.89 24.67-26.21 0.04-26.21 0.04-19.89ZM26.21-8.5Q26.18-6.08 26.98-3.97 27.79-1.86 29.37-0.32L29.37-0.32Q32.36 2.39 37.31 2.46L37.31 2.46Q45.57 2.46 47.43-4.43L47.43-4.43 41-4.43Q40.37-3.65 39.53-3.39 38.68-3.13 37.35-3.16L37.35-3.16Q35.73-3.16 34.49-3.92 33.24-4.67 33.24-5.83L33.24-5.83 47.64-5.83 47.64-8.57Q47.64-10.89 46.91-12.98 46.17-15.07 44.73-16.62L44.73-16.62Q41.81-19.39 36.93-19.47L36.93-19.47Q33.52-19.39 31.1-18.04 28.67-16.69 27.42-14.23 26.18-11.77 26.21-8.5L26.21-8.5ZM33.24-11.1Q33.34-12.33 34.4-13.14L34.4-13.14Q35.59-13.84 36.93-13.84L36.93-13.84Q38.3-13.84 39.39-13.07L39.39-13.07Q40.44-12.23 40.62-11.1L40.62-11.1 33.24-11.1ZM51.16 1.9L58.18 1.9 58.18-26.21 51.16-26.21 51.16 1.9ZM61.7-8.5Q61.66-6.08 62.47-3.97 63.28-1.86 64.86-0.32L64.86-0.32Q67.85 2.39 72.8 2.46L72.8 2.46Q81.06 2.46 82.92-4.43L82.92-4.43 76.49-4.43Q75.86-3.65 75.01-3.39 74.17-3.13 72.84-3.16L72.84-3.16Q71.22-3.16 69.97-3.92 68.73-4.67 68.73-5.83L68.73-5.83 83.13-5.83 83.13-8.57Q83.13-10.89 82.39-12.98 81.66-15.07 80.21-16.62L80.21-16.62Q77.3-19.39 72.41-19.47L72.41-19.47Q69.01-19.39 66.58-18.04 64.16-16.69 62.91-14.23 61.66-11.77 61.7-8.5L61.7-8.5ZM68.73-11.1Q68.83-12.33 69.88-13.14L69.88-13.14Q71.08-13.84 72.41-13.84L72.41-13.84Q73.78-13.84 74.87-13.07L74.87-13.07Q75.93-12.23 76.1-11.1L76.1-11.1 68.73-11.1ZM85.03-13.28L89.6-13.28 89.6 1.83 96.62 1.83 96.62-13.28 102.24-13.28 102.24-18.9 96.62-18.9 96.62-19.57Q96.8-21.05 99.47-21.05L99.47-21.05 102.14-21.05 102.14-26.67 99.33-26.67Q96.06-26.67 94.06-26.37 92.06-26.07 90.83-24.98 89.6-23.89 89.6-21.68L89.6-21.68 89.6-18.9 85.03-18.9 85.03-13.28ZM104.63 1.9L111.66 1.9 111.66-26.21 104.63-26.21 104.63 1.9ZM115.17-8.61Q115.17-6.32 116-4.23 116.83-2.14 118.37-0.56L118.37-0.56Q120.02 1.02 122.31 1.83L122.31 1.83Q124.27 2.42 126.24 2.46L126.24 2.46Q128.21 2.42 130.14 1.83L130.14 1.83Q132.43 1.02 134.08-0.56L134.08-0.56Q135.62-2.14 136.45-4.23 137.28-6.32 137.31-8.61L137.31-8.61Q137.28-10.86 136.47-12.93 135.66-15 134.11-16.55L134.11-16.55Q132.43-18.13 130.18-18.87L130.18-18.87Q128.35-19.39 126.24-19.47L126.24-19.47Q124.1-19.39 122.27-18.87L122.27-18.87Q119.99-18.13 118.34-16.51L118.34-16.51Q116.76-14.9 115.95-12.89L115.95-12.89Q115.17-10.89 115.17-8.61L115.17-8.61ZM122.2-8.61Q122.13-10.79 123.29-12.19L123.29-12.19Q123.89-12.82 124.66-13.16 125.43-13.49 126.24-13.49L126.24-13.49Q128-13.49 129.16-12.23L129.16-12.23Q130.21-10.89 130.28-8.61L130.28-8.61Q130.21-6.25 129.19-4.88L129.19-4.88Q128.03-3.51 126.24-3.51L126.24-3.51Q124.42-3.51 123.26-4.88L123.26-4.88Q122.13-6.39 122.2-8.61L122.2-8.61ZM140.82 1.9L147.85 1.9 147.85-11.03Q148.94-12.37 150.98-13.11 153.02-13.84 155.58-13.81L155.58-13.81 155.58-19.47Q153.05-19.47 151-18.52 148.94-17.57 147.85-15.88L147.85-15.88 147.85-18.9 140.82-18.9 140.82 1.9ZM156.99-3.3Q157.02-0.67 159.06 0.84 161.1 2.35 164.22 2.46L164.22 2.46Q166.16 2.42 167.83 1.91 169.49 1.41 170.72 0.49L170.72 0.49Q170.79 0.67 171.02 1.21 171.25 1.76 171.71 2.46L171.71 2.46 178.07 2.46Q177.61 0.91 177.49-0.07 177.36-1.05 177.36-3.58L177.36-3.58 177.36-11.59Q177.36-15.53 174.71-17.5 172.06-19.47 167.49-19.47L167.49-19.47Q163.77-19.47 161.06-17.71 158.36-15.95 157.34-12.61L157.34-12.61 163.8-12.61Q164.86-13.84 167.35-13.84L167.35-13.84Q168.48-13.91 169.34-13.42 170.2-12.93 170.34-12.02L170.34-12.02 170.34-11.95Q167.56-11.67 165.14-11.17L165.14-11.17Q162.36-10.51 160.39-9.38L160.39-9.38Q158.71-8.36 157.83-6.8 156.95-5.24 156.99-3.3L156.99-3.3ZM164.01-4.18Q164.08-4.71 164.54-5.04 165-5.38 165.81-5.66L165.81-5.66Q167.95-6.32 170.34-6.32L170.34-6.32 170.34-4.04Q168.23-3.16 165.91-3.16L165.91-3.16Q164.93-3.09 164.45-3.32 163.98-3.55 164.01-4.18L164.01-4.18Z" transform="translate(-0.04000000283122063, 26.670000076293945)"></path></g> <!----> <!----> <!----> <!----> <!----> <!----> <!----></g></g> <!----></g></g><defs v-gra="od"></defs></svg>